<?xml version="1.0" encoding="UTF-8"?>
<svg width="260px" height="88px" viewBox="0 0 260 88" version="1.1" xmlns="http://www.w3.org/2000/svg" xmlns:xlink="http://www.w3.org/1999/xlink">
    <!-- Generator: Sketch 45.1 (43504) - http://www.bohemiancoding.com/sketch -->
    <title>Slice 3</title>
    <desc>Created with Sketch.</desc>
    <defs></defs>
    <g id="Page-1" stroke="none" stroke-width="1" fill="none" fill-rule="evenodd">
        <g id="svg-fleetmatics-logo-4.1" transform="translate(38.000000, 19.000000)" fill-rule="nonzero" fill="#FFFFFF">
            <path d="M26.8390769,27.6510154 C26.8390769,29.5018404 25.3406558,31.0016712 23.49265,31.0016712 C21.6460538,31.0016712 20.1518615,29.5018404 20.1518615,27.6510154 C20.1518615,25.8016 21.6460538,24.3017692 23.49265,24.3017692 C25.3392462,24.3017692 26.8376673,25.8016 26.8376673,27.6510154 M18.8832077,29.6695846 C18.8832077,31.5204096 17.3861962,33.0188308 15.5396,33.0188308 C13.6930038,33.0188308 12.1959923,31.5204096 12.1959923,29.6695846 C12.1959923,27.8187596 13.6930038,26.3203385 15.5396,26.3203385 C17.3861962,26.3203385 18.8832077,27.8187596 18.8832077,29.6695846" id="Shape"></path>
            <path d="M7.21723077,11.5024615 C7.21723077,13.3546962 5.72021923,14.8545269 3.87362308,14.8545269 C2.02702692,14.8545269 0.530015385,13.3546962 0.530015385,11.5038712 C0.530015385,9.657275 2.02702692,8.15603462 3.87362308,8.15603462 C5.72021923,8.15603462 7.21864038,9.65586538 7.21864038,11.5052808 L7.21723077,11.5024615 Z M12.625925,5.23672115 C12.625925,7.08754615 11.1289135,8.58596731 9.28231731,8.58596731 C7.43572115,8.58596731 5.93870962,7.08895577 5.93870962,5.23813077 C5.93870962,3.38871538 7.43572115,1.88888462 9.28231731,1.88888462 C11.1289135,1.88888462 12.625925,3.38730577 12.625925,5.23672115 L12.625925,5.23672115 Z M20.6861058,3.53813462 C20.6861058,5.38755 19.1890942,6.88738077 17.3424981,6.88738077 C15.4959019,6.88738077 13.9988904,5.38755 13.9988904,3.536725 C13.9988904,1.6859 15.4973115,0.186069231 17.3439077,0.186069231 C19.1905038,0.186069231 20.6875154,1.6859 20.6875154,3.53531538 L20.6861058,3.53813462 Z M28.11055,7.36101154 C28.11055,9.21183654 26.6135385,10.7116673 24.7669423,10.7116673 C22.9203462,10.7116673 21.421925,9.21042692 21.421925,7.35960192 C21.421925,5.51018654 22.9189365,4.01035577 24.7669423,4.01035577 C26.6135385,4.01035577 28.11055,5.51018654 28.11055,7.35960192 L28.11055,7.36101154 Z M38.1822519,15.9667135 L24.6217519,19.2088288 L24.6217519,19.2116481 C24.4215865,19.2638038 24.2749865,19.442825 24.2749865,19.6584962 C24.2749865,19.8981308 24.4624654,20.0954769 24.6978712,20.1194404 L24.6978712,20.1222596 C26.2569058,20.3294731 28.568675,20.798875 30.0755538,22.7540115 C31.55565,24.6710885 31.4146885,26.9236538 31.1961981,28.4488577 C31.18915,28.4742308 31.1849212,28.5052423 31.1821019,28.5334346 L31.1821019,28.5559885 C31.1821019,28.8097192 31.3893154,29.0211615 31.647275,29.0211615 C31.8206577,29.0211615 31.9714865,28.9224885 32.0490154,28.7772981 L32.0518346,28.7772981 L38.6770269,16.6066788 C38.9138423,16.1696981 38.6671596,15.8454865 38.1836615,15.9638942 L38.1822519,15.9667135 Z M20.26745,16.4276577 C20.26745,18.9184481 18.2517,20.9384269 15.7637288,20.9384269 C13.2757577,20.9384269 11.2585981,18.9184481 11.2585981,16.4276577 C11.2585981,13.9354577 13.2743481,11.9168885 15.7637288,11.9168885 C18.2502904,11.9168885 20.26745,13.9354577 20.26745,16.4276577 L20.26745,16.4276577 Z M57.7984596,10.1957481 L49.9638173,10.1957481 L49.9638173,16.730725 L56.9639673,16.730725 C57.3826231,16.730725 57.5616442,16.9083365 57.5616442,17.2663788 L57.5616442,18.3405058 C57.5616442,18.7577519 57.412225,18.8761596 56.9949788,18.8761596 L49.9652269,18.8761596 L49.9652269,27.9484442 C49.9652269,28.4559058 49.8158077,28.5743135 49.3689596,28.5743135 L47.8183827,28.5743135 C47.3433423,28.5743135 47.1953327,28.4855077 47.1953327,27.9174327 L47.1953327,8.61275 C47.1953327,8.19691346 47.3433423,8.01789231 47.7591788,8.01789231 L58.2467173,8.01789231 C58.60335,8.01789231 58.7541788,8.22651538 58.7231673,8.55354615 L58.60335,9.71788846 C58.5751577,10.1365442 58.3073308,10.1971577 57.7998692,10.1971577 L57.7984596,10.1957481 Z M63.7850962,27.9498538 C63.7850962,28.3671 63.606075,28.5757231 63.2494423,28.5757231 L61.7890808,28.5757231 C61.4310385,28.5757231 61.2534269,28.3967019 61.2534269,27.9794558 L61.2534269,8.16590192 C61.2534269,7.74724615 61.3422327,7.63024808 61.6988654,7.568225 C63.2494423,7.35960192 63.2776346,7.35960192 63.3382481,7.35960192 C63.606075,7.35960192 63.7850962,7.47941923 63.7850962,7.86706346 L63.7850962,27.9484442 L63.7850962,27.9498538 Z M79.0653269,20.908825 C79.0653269,21.5938981 78.9469192,21.7433173 78.1716308,21.7433173 L69.0288654,21.7433173 C69.1162615,24.5766442 70.7246327,26.7855115 73.7341615,26.7855115 C74.9548885,26.7855115 76.2954327,26.5458769 77.3075365,26.1596423 C77.5753635,26.0694269 77.8742019,26.0102231 77.9630077,26.3682654 L78.2914481,27.4719942 C78.3816635,27.7398212 78.2322442,27.8582288 77.9644173,28.0076481 C76.6844865,28.6039154 74.7786865,28.8731519 73.4071308,28.8731519 C68.8202423,28.8731519 66.3773788,25.8593942 66.3773788,21.3542635 C66.3773788,17.0873577 69.0274558,13.835375 73.318325,13.835375 C75.0155019,13.835375 76.3856481,14.4612442 77.3695596,15.4761673 C78.5606846,16.6997135 79.0667365,18.4603231 79.0667365,20.3985442 L79.0667365,20.9060058 L79.0653269,20.908825 Z M76.5632596,20.0123096 L76.5632596,19.5936538 C76.5632596,17.5638077 75.4609404,15.8060173 73.1970981,15.8060173 C70.7246327,15.8060173 69.3248846,17.8048519 69.0866596,20.0123096 L76.5646692,20.0123096 L76.5632596,20.0123096 Z M93.3334538,20.908825 C93.3334538,21.5938981 93.2136365,21.7433173 92.4397577,21.7433173 L83.2941731,21.7433173 C83.3829788,24.5766442 84.9927596,26.7855115 88.0022885,26.7855115 C89.2216058,26.7855115 90.56215,26.5458769 91.5756635,26.1596423 C91.8434904,26.0694269 92.1395096,26.0102231 92.2311346,26.3682654 L92.5581654,27.4719942 C92.6483808,27.7398212 92.4989615,27.8582288 92.2311346,28.0076481 C90.9483846,28.6039154 89.0454038,28.8731519 87.6738481,28.8731519 C83.08555,28.8731519 80.6426865,25.8593942 80.6426865,21.3542635 C80.6426865,17.0873577 83.2927635,13.835375 87.5822231,13.835375 C89.2808096,13.835375 90.6509558,14.4612442 91.6334577,15.4761673 C92.8245827,16.6997135 93.3320442,18.4603231 93.3320442,20.3985442 L93.3320442,20.9060058 L93.3334538,20.908825 Z M90.8299769,20.0123096 L90.8299769,19.5936538 C90.8299769,17.5638077 89.7304769,15.8060173 87.4638154,15.8060173 C84.9927596,15.8060173 83.5916019,17.8048519 83.3533769,20.0123096 L90.8299769,20.0123096 Z M101.017267,26.8757269 C101.70234,26.8757269 102.417015,26.6671038 102.892056,26.5176846 C103.103498,26.4274692 103.340313,26.5176846 103.430529,26.7855115 L103.670163,27.7398212 C103.726548,28.0358404 103.639152,28.1866692 103.28111,28.3360885 C102.594627,28.6039154 101.52191,28.8717423 100.509806,28.8717423 C99.2270558,28.8717423 97.9485346,28.5151096 97.2634615,27.7694231 C96.4007769,26.8151135 96.3401635,25.6225788 96.3401635,23.7717538 L96.3401635,15.9540269 L94.7021904,15.9540269 C94.3159558,15.9540269 94.2553423,15.8948231 94.2553423,15.5071788 L94.2553423,14.5838808 C94.2553423,14.2850423 94.3751596,14.165225 94.6429865,14.165225 L96.3415731,14.165225 L96.3415731,10.7624135 C96.3415731,10.3451673 96.4613904,10.2267596 96.8490346,10.1661462 L98.3079865,9.95752308 L98.4278038,9.95752308 C98.7238231,9.95752308 98.8746519,10.1661462 98.8746519,10.4931769 L98.8746519,14.1638154 L102.388823,14.1638154 C102.65665,14.1638154 102.806069,14.2244288 102.806069,14.5514596 L102.806069,15.5663827 C102.806069,15.8652212 102.65806,15.9540269 102.360631,15.9540269 L98.8760615,15.9540269 L98.8760615,24.0113885 C98.8760615,24.9953 98.9352654,25.7705885 99.3835231,26.2808692 C99.7077346,26.6375019 100.246208,26.8757269 101.018677,26.8757269 L101.017267,26.8757269 Z M126.813229,27.9498538 C126.813229,28.3671 126.634208,28.5757231 126.249383,28.5757231 L124.877827,28.5757231 C124.490183,28.5757231 124.28156,28.3671 124.28156,27.9498538 L124.28156,19.5654615 C124.28156,17.4172077 123.745906,15.924425 121.332644,15.924425 C120.110508,15.924425 118.651556,16.5206923 117.61126,17.3269923 C117.787462,17.8950673 117.848075,19.6838692 117.848075,20.6113962 L117.848075,27.9498538 C117.848075,28.3671 117.669054,28.5757231 117.28141,28.5757231 L115.914083,28.5757231 C115.526438,28.5757231 115.316406,28.3671 115.316406,27.9498538 L115.316406,19.5654615 C115.316406,17.5074231 114.869558,15.924425 112.51691,15.924425 C111.146763,15.924425 109.717413,16.6997135 108.644696,17.6864442 L108.644696,27.9484442 C108.644696,28.3671 108.465675,28.5757231 108.078031,28.5757231 L106.679692,28.5757231 C106.292048,28.5757231 106.115846,28.3671 106.115846,27.9498538 L106.115846,14.7614923 C106.115846,14.3724385 106.32306,14.1638154 106.679692,14.1638154 L107.962442,14.1638154 C108.317665,14.1638154 108.554481,14.3132346 108.554481,14.6994692 L108.586902,15.6269962 C109.83864,14.4922558 111.507625,13.8367846 113.115996,13.8367846 C114.753969,13.8367846 116.214331,14.4330519 116.98821,15.6862 C118.358356,14.4626538 120.234554,13.8367846 121.964152,13.8367846 C123.958758,13.8367846 125.209087,14.5838808 125.925171,15.6862 C126.549631,16.6729308 126.817458,17.9838731 126.817458,19.6542673 L126.817458,27.9498538 L126.813229,27.9498538 Z M143.3748,28.1880788 C143.3748,28.4869173 143.225381,28.5757231 142.927952,28.5757231 L141.676213,28.5757231 C140.365271,28.5757231 139.740812,27.5608 139.740812,26.3682654 L139.680198,26.3682654 C138.996535,27.6792077 137.030121,28.8745615 135.214537,28.8745615 C131.102688,28.8745615 129.285694,25.3829442 129.285694,21.6235 C129.285694,16.6405096 132.23461,13.8367846 135.631783,13.8367846 C137.120337,13.8367846 138.728708,14.4626538 139.620994,15.6551885 L139.652006,14.6712769 C139.652006,14.3132346 139.89164,14.1638154 140.218671,14.1638154 L141.557806,14.1638154 C141.915848,14.1638154 142.09346,14.3428365 142.09346,14.7318904 L142.09346,25.1771404 C142.09346,25.8622135 142.124471,26.3400731 142.244288,26.5190942 C142.361287,26.7277173 142.512115,26.7869212 142.748931,26.7869212 L142.957554,26.7869212 C143.225381,26.7869212 143.3748,26.8475346 143.3748,27.1745654 L143.3748,28.1894885 L143.3748,28.1880788 Z M139.56179,18.013475 C138.847115,16.6701115 137.386754,15.8638115 135.957404,15.8638115 C133.66396,15.8638115 131.935771,17.8936577 131.935771,21.4430692 C131.935771,24.7274731 133.455337,26.7545 135.600771,26.7545 C137.506571,26.7545 139.026137,25.2349346 139.56179,23.7421519 L139.56179,18.0148846 L139.56179,18.013475 Z M150.345348,26.8757269 C151.030421,26.8757269 151.743687,26.6671038 152.220137,26.5176846 C152.431579,26.4274692 152.668394,26.5176846 152.75579,26.7855115 L152.995425,27.7398212 C153.056038,28.0358404 152.967233,28.1866692 152.607781,28.3360885 C151.922708,28.6039154 150.8514,28.8717423 149.837887,28.8717423 C148.557956,28.8717423 147.276615,28.5151096 146.591542,27.7694231 C145.727448,26.8151135 145.668244,25.6225788 145.668244,23.7717538 L145.668244,15.9540269 L144.028862,15.9540269 C143.641217,15.9540269 143.582013,15.8948231 143.582013,15.5071788 L143.582013,14.5838808 C143.582013,14.2850423 143.700421,14.165225 143.968248,14.165225 L145.666835,14.165225 L145.666835,10.7624135 C145.666835,10.3451673 145.785242,10.2267596 146.171477,10.1661462 L147.631838,9.95752308 L147.750246,9.95752308 C148.046265,9.95752308 148.197094,10.1661462 148.197094,10.4931769 L148.197094,14.1638154 L151.712675,14.1638154 C151.980502,14.1638154 152.128512,14.2244288 152.128512,14.5514596 L152.128512,15.5663827 C152.128512,15.8652212 151.979092,15.9540269 151.680254,15.9540269 L148.195685,15.9540269 L148.195685,24.0113885 C148.195685,24.9953 148.254888,25.7705885 148.703146,26.2808692 C149.030177,26.6375019 149.565831,26.8757269 150.341119,26.8757269 L150.345348,26.8757269 Z M156.956444,12.076175 C156.152963,12.076175 155.436879,11.5081 155.436879,10.6440058 C155.436879,9.77991154 156.151554,9.21324615 156.955035,9.21324615 C157.758515,9.21324615 158.505612,9.77991154 158.505612,10.6454154 C158.505612,11.5109192 157.730323,12.0789942 156.955035,12.0789942 L156.956444,12.076175 Z M158.237785,27.9512635 C158.237785,28.3699192 158.057354,28.5785423 157.671119,28.5785423 L156.299563,28.5785423 C155.913329,28.5785423 155.704706,28.3699192 155.704706,27.9526731 L155.704706,14.7643115 C155.704706,14.3456558 155.913329,14.1666346 156.299563,14.1666346 L157.671119,14.1666346 C158.057354,14.1666346 158.234965,14.3456558 158.234965,14.7643115 L158.234965,27.9526731 L158.237785,27.9512635 Z M171.403592,28.0090577 C170.120842,28.605325 168.753515,28.8745615 167.38196,28.8745615 C162.704856,28.8745615 160.441013,25.8297923 160.441013,21.385275 C160.441013,17.0013712 163.09109,13.8381942 167.559571,13.8381942 C168.842321,13.8381942 170.329465,14.165225 171.372581,14.7022885 C171.581204,14.7910942 171.6686,14.9095019 171.6686,15.0899327 C171.6686,15.1787385 171.640408,15.2379423 171.612215,15.3295673 L171.372581,16.2824673 C171.313377,16.4939096 171.223162,16.6419192 171.04555,16.6419192 C170.984937,16.6419192 170.866529,16.6137269 170.777723,16.5531135 C169.853015,16.1344577 168.840912,15.8060173 167.679388,15.8060173 C164.848881,15.8060173 163.061488,17.9246692 163.061488,21.2668673 C163.061488,24.3116365 164.372431,26.9363404 167.558162,26.9363404 C168.840912,26.9363404 169.940412,26.6403212 170.894721,26.2202558 C170.983527,26.1920635 171.072333,26.1610519 171.134356,26.1610519 C171.282365,26.1610519 171.371171,26.2498577 171.430375,26.4598904 L171.698202,27.2943827 C171.726394,27.4142 171.757406,27.5340173 171.757406,27.6228231 C171.757406,27.8018442 171.66719,27.89065 171.399363,28.0104673 L171.403592,28.0090577 Z M177.541058,28.8745615 C176.018673,28.8745615 174.439904,28.3671 173.458812,27.9188423 C173.190985,27.8004346 173.100769,27.5918115 173.190985,27.3521769 L173.577219,26.27805 C173.667435,26.0384154 173.873238,25.9200077 174.084681,26.0102231 C175.216602,26.4894923 176.61635,26.9053288 177.628454,26.9053288 C179.356642,26.9053288 180.518165,26.0694269 180.518165,24.6668596 C180.518165,23.5025173 179.654071,22.8766481 178.283925,22.338175 L176.28791,21.5628865 C174.532938,20.8764038 173.221996,19.6824596 173.221996,17.8034423 C173.221996,15.1787385 175.604246,13.8367846 178.226131,13.8367846 C179.508881,13.8367846 180.7578,14.0454077 182.098344,14.6712769 C182.277365,14.7614923 182.366171,14.8502981 182.366171,14.9701154 C182.366171,15.0293192 182.337979,15.1195346 182.306967,15.20975 L181.978527,16.2528654 C181.919323,16.4614885 181.800915,16.5517038 181.651496,16.5517038 C181.592292,16.5517038 181.502077,16.5206923 181.411862,16.4910904 C180.639392,16.1316385 179.238235,15.7721865 178.285335,15.7721865 C176.706565,15.7721865 175.842471,16.6094981 175.842471,17.6244212 C175.842471,18.6393442 176.438738,19.1157942 177.689067,19.6542673 L180.014933,20.6381788 C181.650087,21.3232519 182.99204,22.5171962 182.99204,24.427225 C182.99204,27.1717462 180.698596,28.8731519 177.541058,28.8731519 L177.541058,28.8745615 Z" id="Shape"></path>
            <g id="Group" transform="translate(0.000000, 16.529150)">
                <g id="Clipped">
                    <path d="M11.1416,10.1661462 C11.1416,12.0155615 9.64458846,13.5153923 7.79799231,13.5153923 C5.95139615,13.5153923 4.45438462,12.0155615 4.45438462,10.1661462 C4.45438462,8.31673077 5.95139615,6.8169 7.79799231,6.8169 C9.64458846,6.8169 11.1416,8.31673077 11.1416,10.1661462 M6.68721538,3.36898077 C6.68721538,5.21557692 5.19302308,6.71681731 3.34360769,6.71681731 C1.49701154,6.71681731 0,5.21557692 0,3.36898077 C0,1.51674615 1.49701154,0.0169153846 3.34360769,0.0169153846 C5.19020385,0.0169153846 6.68721538,1.51674615 6.68721538,3.36616154" id="Shape"></path>
                </g>
            </g>
        </g>
        <text id="Flex" font-family=".SFNSText-Medium, .SF NS Text" font-size="20" font-weight="400" fill="#FFFFFF">
            <tspan x="183" y="70">Flex</tspan>
        </text>
    </g>
</svg>